<svg width="202" height="43" viewBox="0 0 202 43" fill="none" xmlns="http://www.w3.org/2000/svg">
<g id="Group 1">
<path id="Vector" d="M66.2214 11.4322H72.2273L66.6502 30.771H60.6443L66.2214 11.4322Z" fill="white"/>
<path id="Vector_2" fill-rule="evenodd" clip-rule="evenodd" d="M74.8004 11.4322H80.8063L79.3016 16.648L86.3815 11.4322H92.3875L77.4864 22.9472L75.2311 30.7691H69.2252L74.8023 11.4303L74.8004 11.4322ZM79.0909 23.4654L84.0247 20.0284L87.2411 30.7728H81.2352L79.0909 23.4673V23.4654Z" fill="white"/>
<path id="Vector_3" fill-rule="evenodd" clip-rule="evenodd" d="M93.17 16.158L94.0861 12.983C94.3513 12.0634 95.1921 11.4303 96.1457 11.4303H120.7L116.487 26.0413H128.927L127.564 30.7691H111.97C110.543 30.7691 109.514 29.3973 109.911 28.0236L113.332 16.158H93.17ZM92.6735 17.8765H98.6794L98.307 19.1654H109.032L107.917 23.0339H97.1915L96.3244 26.0413H108.336L106.974 30.7691H88.9567L92.6753 17.8765H92.6735Z" fill="white"/>
<path id="Vector_4" fill-rule="evenodd" clip-rule="evenodd" d="M141.291 11.4322H154.16C155.234 11.4322 156.007 12.4629 155.71 13.4955L153.952 19.597H147.946L148.779 16.7083C148.858 16.4332 148.653 16.1599 148.367 16.1599H140.574C140.192 16.1599 139.856 16.4125 139.75 16.7818L138.443 21.3173H153.457L150.731 30.771H144.725L146.337 25.184H137.329L135.717 30.771H129.712L134.662 13.6067C135.033 12.3197 136.21 11.4341 137.548 11.4341H141.295L141.291 11.4322Z" fill="white"/>
<path id="Vector_5" fill-rule="evenodd" clip-rule="evenodd" d="M157.945 16.1581L159.309 11.4303H174.322L177.324 11.4077H177.497C178.918 11.419 179.937 12.787 179.542 14.1532L174.751 30.7672H168.745L172.643 17.2548C172.801 16.7045 172.389 16.1562 171.819 16.1562H157.945V16.1581ZM157.45 17.8766H163.456L159.737 30.7691H153.731L157.45 17.8766Z" fill="white"/>
<path id="Vector_6" fill-rule="evenodd" clip-rule="evenodd" d="M59.9727 22.3348C59.5307 21.6904 58.8968 21.1816 58.0673 20.8142C59.1526 20.3525 59.999 19.7175 60.6066 18.9053C61.2141 18.0762 61.517 17.1171 61.517 16.0299C61.517 14.5544 60.9282 13.4201 59.7507 12.6287C58.735 11.9296 57.3168 11.532 55.4941 11.434H55.4678C55.1837 11.4189 54.8903 11.4114 54.5875 11.4114H43.0534L41.6897 16.1599H54.2056C55.0634 16.1599 55.4922 16.7704 55.4922 17.4488C55.4922 18.7376 54.2056 19.1673 53.3479 19.1673H46.8266L47.199 17.8784H41.1931L37.4763 30.7709H51.6325C51.6532 30.7709 51.6739 30.7709 51.6927 30.7709H52.4883V30.7521C54.7511 30.6503 56.6283 30.1415 58.1181 29.222C59.8109 28.1894 60.6574 26.6499 60.6574 24.6035C60.6574 23.7179 60.4279 22.9623 59.9671 22.3348H59.9727ZM52.2551 26.0432C52.793 26.0413 53.252 26.0149 53.5962 25.7643C54.0006 25.4515 54.2038 25.0087 54.2038 24.4358C54.2038 24.0307 53.995 23.6783 53.7805 23.4635C53.5661 23.2487 53.1674 23.0339 52.7084 23.0339H45.7168L44.8497 26.0413H52.257L52.2551 26.0432Z" fill="white"/>
<path id="Vector_7" fill-rule="evenodd" clip-rule="evenodd" d="M197.056 11.4641H182.9L181.544 16.1693H188.048V16.1919H194.099C194.897 16.1919 195.472 16.9588 195.25 17.7257L193.339 24.3567H199.345L201.871 15.5927C202.467 13.5256 200.919 11.4641 198.773 11.4641H197.058H197.056ZM187.053 17.8878H181.047L177.323 30.801H191.479V30.7784L192.574 30.7822C195.48 30.7935 198.041 28.8696 198.848 26.0733H184.692L187.053 17.8859V17.8878Z" fill="white"/>
<path id="Vector_8" fill-rule="evenodd" clip-rule="evenodd" d="M12.8696 7.3055L0 0V34.3794L12.8696 27.0739V7.3055ZM26.1605 20.198L15.0158 13.7518L14.8973 28.5701L2.14619 36.0829L13.2909 42.5291L26.0401 35.0163L26.1586 20.198H26.1605Z" fill="#BB1D1E"/>
</g>
</svg>
