<svg width="231" height="49" viewBox="0 0 231 49" fill="none" xmlns="http://www.w3.org/2000/svg">
<g id="Group 2">
<path id="Vector" d="M75.7288 13.0735H82.597L76.2192 35.1886H69.3511L75.7288 13.0735Z" fill="white"/>
<path id="Vector_2" fill-rule="evenodd" clip-rule="evenodd" d="M85.5397 13.0734H92.4078L90.687 19.038L98.7834 13.0734H105.652L88.6113 26.2416L86.0322 35.1864H79.1641L85.5418 13.0712L85.5397 13.0734ZM90.4461 26.8342L96.0882 22.9037L99.7664 35.1907H92.8982L90.4461 26.8363V26.8342Z" fill="white"/>
<path id="Vector_3" fill-rule="evenodd" clip-rule="evenodd" d="M106.546 18.4777L107.593 14.8468C107.897 13.7952 108.858 13.0712 109.949 13.0712H138.028L133.21 29.7798H147.436L145.877 35.1864H128.045C126.413 35.1864 125.236 33.6176 125.69 32.0467L129.602 18.4777H106.546ZM105.978 20.4429H112.846L112.42 21.9168H124.685L123.41 26.3407H111.145L110.153 29.7798H123.889L122.332 35.1864H101.728L105.98 20.4429H105.978Z" fill="white"/>
<path id="Vector_4" fill-rule="evenodd" clip-rule="evenodd" d="M161.575 13.0735H176.292C177.521 13.0735 178.405 14.2522 178.065 15.433L176.054 22.4104H169.185L170.138 19.107C170.229 18.7924 169.994 18.4799 169.667 18.4799H160.756C160.319 18.4799 159.934 18.7687 159.813 19.1911L158.318 24.3778H175.488L172.371 35.1886H165.503L167.346 28.7995H157.045L155.202 35.1886H148.333L153.995 15.5601C154.419 14.0884 155.765 13.0756 157.295 13.0756H161.579L161.575 13.0735Z" fill="white"/>
<path id="Vector_5" fill-rule="evenodd" clip-rule="evenodd" d="M180.62 18.4779L182.179 13.0714H199.349L202.782 13.0455H202.98C204.604 13.0585 205.77 14.6229 205.318 16.1851L199.839 35.1844H192.971L197.428 19.732C197.609 19.1028 197.138 18.4757 196.486 18.4757H180.62V18.4779ZM180.054 20.4431H186.922L182.67 35.1865H175.802L180.054 20.4431Z" fill="white"/>
<path id="Vector_6" fill-rule="evenodd" clip-rule="evenodd" d="M68.583 25.5412C68.0775 24.8043 67.3526 24.2224 66.404 23.8023C67.6452 23.2743 68.6131 22.5481 69.3079 21.6194C70.0027 20.6713 70.349 19.5744 70.349 18.3311C70.349 16.6439 69.6757 15.3466 68.3292 14.4416C67.1676 13.6422 65.5458 13.1875 63.4615 13.0754H63.4313C63.1065 13.0582 62.771 13.0496 62.4247 13.0496H49.2347L47.6752 18.4798H61.988C62.9689 18.4798 63.4593 19.178 63.4593 19.9537C63.4593 21.4276 61.988 21.9189 61.0071 21.9189H53.5496L53.9755 20.445H47.1073L42.8569 35.1884H59.0454C59.0691 35.1884 59.0927 35.1884 59.1143 35.1884H60.0241V35.1669C62.6118 35.0505 64.7585 34.4687 66.4621 33.4172C68.398 32.2363 69.366 30.4758 69.366 28.1356C69.366 27.1229 69.1035 26.2588 68.5765 25.5412H68.583ZM59.7574 29.7819C60.3726 29.7798 60.8974 29.7496 61.2911 29.463C61.7535 29.1053 61.9859 28.5989 61.9859 27.9439C61.9859 27.4806 61.7471 27.0776 61.5019 26.832C61.2567 26.5863 60.8007 26.3407 60.2758 26.3407H52.2805L51.2889 29.7798H59.7596L59.7574 29.7819Z" fill="white"/>
<path id="Vector_7" fill-rule="evenodd" clip-rule="evenodd" d="M225.346 13.11H209.158L207.607 18.4906H215.045V18.5165H221.965C222.877 18.5165 223.535 19.3935 223.281 20.2705L221.096 27.8534H227.964L230.853 17.8312C231.534 15.4674 229.764 13.11 227.31 13.11H225.348H225.346ZM213.907 20.4558H207.039L202.78 35.223H218.968V35.1971L220.22 35.2014C223.543 35.2143 226.473 33.0142 227.396 29.8165H211.207L213.907 20.4537V20.4558Z" fill="white"/>
<path id="Vector_8" fill-rule="evenodd" clip-rule="evenodd" d="M14.7172 8.35432L0 0V39.3151L14.7172 30.9608V8.35432ZM29.9162 23.0978L17.1715 15.726L17.036 32.6717L2.4543 41.2631L15.199 48.6348L29.7786 40.0434L29.9141 23.0978H29.9162Z" fill="#BB1D1E"/>
</g>
</svg>
