<svg width="13" height="14" viewBox="0 0 13 14" fill="none" xmlns="http://www.w3.org/2000/svg">
<path id="Vector" d="M12.4583 2.15385H9.75V1.61538C9.75 1.18696 9.5788 0.776079 9.27405 0.473135C8.9693 0.170192 8.55598 0 8.125 0H4.875C4.44402 0 4.0307 0.170192 3.72595 0.473135C3.4212 0.776079 3.25 1.18696 3.25 1.61538V2.15385H0.541667C0.398008 2.15385 0.260233 2.21058 0.158651 2.31156C0.0570684 2.41254 0 2.5495 0 2.69231C0 2.83512 0.0570684 2.97208 0.158651 3.07306C0.260233 3.17404 0.398008 3.23077 0.541667 3.23077H1.08333V12.9231C1.08333 13.2087 1.19747 13.4826 1.40063 13.6846C1.6038 13.8865 1.87935 14 2.16667 14H10.8333C11.1207 14 11.3962 13.8865 11.5994 13.6846C11.8025 13.4826 11.9167 13.2087 11.9167 12.9231V3.23077H12.4583C12.602 3.23077 12.7398 3.17404 12.8414 3.07306C12.9429 2.97208 13 2.83512 13 2.69231C13 2.5495 12.9429 2.41254 12.8414 2.31156C12.7398 2.21058 12.602 2.15385 12.4583 2.15385ZM4.33333 1.61538C4.33333 1.47258 4.3904 1.33562 4.49198 1.23463C4.59357 1.13365 4.73134 1.07692 4.875 1.07692H8.125C8.26866 1.07692 8.40644 1.13365 8.50802 1.23463C8.6096 1.33562 8.66667 1.47258 8.66667 1.61538V2.15385H4.33333V1.61538ZM10.8333 12.9231H2.16667V3.23077H10.8333V12.9231ZM5.41667 5.92308V10.2308C5.41667 10.3736 5.3596 10.5105 5.25802 10.6115C5.15643 10.7125 5.01866 10.7692 4.875 10.7692C4.73134 10.7692 4.59357 10.7125 4.49198 10.6115C4.3904 10.5105 4.33333 10.3736 4.33333 10.2308V5.92308C4.33333 5.78027 4.3904 5.64331 4.49198 5.54233C4.59357 5.44135 4.73134 5.38462 4.875 5.38462C5.01866 5.38462 5.15643 5.44135 5.25802 5.54233C5.3596 5.64331 5.41667 5.78027 5.41667 5.92308ZM8.66667 5.92308V10.2308C8.66667 10.3736 8.6096 10.5105 8.50802 10.6115C8.40644 10.7125 8.26866 10.7692 8.125 10.7692C7.98134 10.7692 7.84357 10.7125 7.74198 10.6115C7.6404 10.5105 7.58333 10.3736 7.58333 10.2308V5.92308C7.58333 5.78027 7.6404 5.64331 7.74198 5.54233C7.84357 5.44135 7.98134 5.38462 8.125 5.38462C8.26866 5.38462 8.40644 5.44135 8.50802 5.54233C8.6096 5.64331 8.66667 5.78027 8.66667 5.92308Z" fill="#B41C1D"/>
</svg>
