<svg width="22" height="27" viewBox="0 0 22 27" fill="none" xmlns="http://www.w3.org/2000/svg">
<g id="Group">
<path id="Vector" fill-rule="evenodd" clip-rule="evenodd" d="M7.70018 5.86667C6.92221 5.86667 6.17611 5.55762 5.626 5.00751C5.07589 4.45741 4.76685 3.7113 4.76685 2.93333C4.76685 2.15537 5.07589 1.40926 5.626 0.859153C6.17611 0.309047 6.92221 0 7.70018 0C8.47815 0 9.22425 0.309047 9.77436 0.859153C10.3245 1.40926 10.6335 2.15537 10.6335 2.93333C10.6335 3.7113 10.3245 4.45741 9.77436 5.00751C9.22425 5.55762 8.47815 5.86667 7.70018 5.86667ZM7.70018 4.4C7.3112 4.4 6.93814 4.24548 6.66309 3.97042C6.38804 3.69537 6.23351 3.32232 6.23351 2.93333C6.23351 2.54435 6.38804 2.1713 6.66309 1.89624C6.93814 1.62119 7.3112 1.46667 7.70018 1.46667C8.08916 1.46667 8.46222 1.62119 8.73727 1.89624C9.01232 2.1713 9.16685 2.54435 9.16685 2.93333C9.16685 3.32232 9.01232 3.69537 8.73727 3.97042C8.46222 4.24548 8.08916 4.4 7.70018 4.4Z" fill="white"/>
<path id="Vector_2" d="M2.93384 11.7333C2.93384 11.3443 3.08836 10.9713 3.36341 10.6962C3.63847 10.4212 4.01152 10.2667 4.4005 10.2667V13.2C4.01152 13.2 3.63847 13.0455 3.36341 12.7704C3.08836 12.4954 2.93384 12.1223 2.93384 11.7333Z" fill="white"/>
<path id="Vector_3" fill-rule="evenodd" clip-rule="evenodd" d="M17.6 11.1731C17.1971 11.5345 16.6746 11.7341 16.1333 11.7333H12.4667V24.2C12.4667 24.7835 12.2349 25.3431 11.8223 25.7556C11.4097 26.1682 10.8501 26.4 10.2667 26.4C9.68319 26.4 9.12361 26.1682 8.71103 25.7556C8.29845 25.3431 8.06667 24.7835 8.06667 24.2V18.3333H7.33333V24.2C7.33333 24.7141 7.15733 25.1871 6.86107 25.5618C6.57802 25.9209 6.19014 26.1828 5.75134 26.3113C5.31254 26.4397 4.84463 26.4282 4.41265 26.2784C3.98067 26.1287 3.60608 25.848 3.34097 25.4755C3.07585 25.1031 2.93337 24.6572 2.93333 24.2V15.9265C1.78713 15.3985 0 13.8673 0 11.4187C0 8.3336 2.83873 7.33333 3.65567 7.33333H16.1333C16.6965 7.33333 17.2113 7.54527 17.6 7.8936V6.6H16.8667C16.2832 6.6 15.7236 6.36822 15.311 5.95564C14.8985 5.54306 14.6667 4.98348 14.6667 4.4V0H16.1333V4.4C16.1333 4.59449 16.2106 4.78102 16.3481 4.91854C16.4856 5.05607 16.6722 5.13333 16.8667 5.13333H17.6V0H19.0667V5.13333H19.8C19.9945 5.13333 20.181 5.05607 20.3185 4.91854C20.4561 4.78102 20.5333 4.59449 20.5333 4.4V0H22V4.4C22 4.98348 21.7682 5.54306 21.3556 5.95564C20.9431 6.36822 20.3835 6.6 19.8 6.6H19.0667V25.6667C19.0667 25.8612 18.9894 26.0477 18.8519 26.1852C18.7144 26.3227 18.5278 26.4 18.3333 26.4C18.1388 26.4 17.9523 26.3227 17.8148 26.1852C17.6773 26.0477 17.6 25.8612 17.6 25.6667V11.1731ZM3.54713 14.5941L4.4 14.9871V24.2C4.4 24.3945 4.47726 24.581 4.61479 24.7185C4.75232 24.8561 4.93884 24.9333 5.13333 24.9333C5.32783 24.9333 5.51435 24.8561 5.65188 24.7185C5.78941 24.581 5.86667 24.3945 5.86667 24.2V16.8667H9.53333V24.2C9.53333 24.3945 9.61059 24.581 9.74812 24.7185C9.88565 24.8561 10.0722 24.9333 10.2667 24.9333C10.4612 24.9333 10.6477 24.8561 10.7852 24.7185C10.9227 24.581 11 24.3945 11 24.2V10.2667H16.1333C16.3278 10.2667 16.5144 10.1894 16.6519 10.0519C16.7894 9.91435 16.8667 9.72783 16.8667 9.53333C16.8667 9.33884 16.7894 9.15232 16.6519 9.01479C16.5144 8.87726 16.3278 8.8 16.1333 8.8H3.65567C3.66153 8.8 3.66007 8.8 3.6498 8.8022C3.61387 8.80733 3.4738 8.82933 3.2516 8.9122C2.95459 9.02359 2.67618 9.17936 2.42587 9.3742C1.91033 9.77753 1.46667 10.3965 1.46667 11.4187C1.46667 13.0929 2.7082 14.2076 3.54713 14.5941Z" fill="white"/>
</g>
</svg>
