<svg width="35" height="41" viewBox="0 0 35 41" fill="none" xmlns="http://www.w3.org/2000/svg">
<path id="Vector" d="M13.6111 37.0952H21.3889C21.3889 39.2429 19.6389 41 17.5 41C15.3611 41 13.6111 39.2429 13.6111 37.0952ZM35 33.1905V35.1429H0V33.1905L3.88889 29.2857V17.5714C3.88889 11.519 7.77778 6.24762 13.6111 4.49048V3.90476C13.6111 1.75714 15.3611 0 17.5 0C19.6389 0 21.3889 1.75714 21.3889 3.90476V4.49048C27.2222 6.24762 31.1111 11.519 31.1111 17.5714V29.2857L35 33.1905ZM27.2222 17.5714C27.2222 12.1048 22.9444 7.80952 17.5 7.80952C12.0556 7.80952 7.77778 12.1048 7.77778 17.5714V31.2381H27.2222V17.5714Z" fill="black"/>
</svg>
