<svg width="24" height="24" viewBox="0 0 24 24" fill="none" xmlns="http://www.w3.org/2000/svg">
<g id="Icon">
<path id="Vector" d="M11.9889 16.4717C11.7579 16.4697 11.5367 16.378 11.3719 16.216L2.64464 7.48873C2.48567 7.32413 2.3977 7.10368 2.39969 6.87485C2.40168 6.64602 2.49346 6.42713 2.65527 6.26532C2.81708 6.10351 3.03598 6.01173 3.2648 6.00974C3.49363 6.00775 3.71408 6.09572 3.87868 6.25469L11.9889 14.3649L20.0992 6.25469C20.1797 6.17134 20.276 6.10485 20.3825 6.05911C20.4889 6.01337 20.6035 5.9893 20.7193 5.98829C20.8352 5.98728 20.9501 6.00937 21.0574 6.05325C21.1647 6.09713 21.2621 6.16193 21.344 6.24387C21.426 6.32582 21.4908 6.42326 21.5347 6.53051C21.5786 6.63777 21.6006 6.75269 21.5996 6.86857C21.5986 6.98445 21.5745 7.09897 21.5288 7.20544C21.4831 7.31192 21.4166 7.40822 21.3332 7.48873L12.606 16.216C12.4412 16.378 12.22 16.4697 11.9889 16.4717Z" fill="#B9BBBD"/>
</g>
</svg>
