<svg width="25" height="25" viewBox="0 0 25 25" fill="none" xmlns="http://www.w3.org/2000/svg">
<g id="Group 208">
<path id="Vector" d="M18.4305 12.5C18.4276 11.5662 18.3275 10.6353 18.1319 9.72222H20.6319C20.5031 9.34136 20.3477 8.97007 20.1666 8.61111H17.8402C17.4029 7.15004 16.7246 5.77229 15.8333 4.53472C15.2638 4.29528 14.6701 4.11832 14.0624 4.00694C15.2835 5.31892 16.2052 6.88034 16.7638 8.58333H13.0208V3.88889H11.9791V8.59028H8.23606C8.79583 6.8842 9.71997 5.32028 10.9444 4.00694C10.3394 4.11646 9.74797 4.29109 9.1805 4.52778C8.28568 5.76015 7.60269 7.13316 7.15967 8.59028H4.81939C4.63506 8.95579 4.47725 9.33408 4.34717 9.72222H6.868C6.67237 10.6353 6.57229 11.5662 6.56939 12.5C6.57131 13.5214 6.68778 14.5393 6.91661 15.5347H4.45828C4.60195 15.924 4.77369 16.3023 4.97217 16.6667H7.21522C7.64037 17.9971 8.27065 19.2529 9.08328 20.3889C9.6652 20.6385 10.2731 20.8225 10.8958 20.9375C9.76239 19.7012 8.89075 18.2485 8.33328 16.6667H11.9861V21.0694H13.0277V16.6667H16.6666C16.1072 18.2491 15.2332 19.702 14.0972 20.9375C14.7227 20.8185 15.333 20.6298 15.9166 20.375C16.728 19.2433 17.3582 17.9922 17.7847 16.6667H20.0069C20.2045 16.309 20.3762 15.9377 20.5208 15.5556H18.0555C18.2952 14.5544 18.421 13.5294 18.4305 12.5ZM11.9791 15.5347H7.993C7.50409 13.6235 7.48265 11.6226 7.9305 9.70139H11.9791V15.5347ZM17.0069 15.5347H13.0208V9.72222H17.0694C17.2689 10.6345 17.3667 11.5661 17.3611 12.5C17.3667 13.5222 17.2478 14.5413 17.0069 15.5347Z" fill="white"/>
<path id="Vector_2" d="M12.4998 1.38889C10.3022 1.38889 8.154 2.04054 6.32679 3.26145C4.49957 4.48235 3.07543 6.21767 2.23446 8.24796C1.39349 10.2783 1.17345 12.5123 1.60217 14.6677C2.0309 16.823 3.08913 18.8028 4.64305 20.3567C6.19696 21.9107 8.17677 22.9689 10.3321 23.3976C12.4875 23.8263 14.7215 23.6063 16.7518 22.7653C18.7821 21.9244 20.5174 20.5002 21.7383 18.673C22.9592 16.8458 23.6109 14.6976 23.6109 12.5C23.6109 9.55315 22.4403 6.727 20.3565 4.64326C18.2728 2.55952 15.4466 1.38889 12.4998 1.38889ZM12.4998 22.2222C10.5769 22.2222 8.69722 21.652 7.09841 20.5837C5.4996 19.5154 4.25348 17.997 3.51763 16.2205C2.78177 14.444 2.58924 12.4892 2.96438 10.6033C3.33951 8.71736 4.26546 6.98503 5.62514 5.62535C6.98482 4.26567 8.71715 3.33972 10.6031 2.96459C12.489 2.58945 14.4438 2.78199 16.2203 3.51784C17.9968 4.25369 19.5152 5.49981 20.5835 7.09862C21.6518 8.69743 22.222 10.5771 22.222 12.5C22.222 15.0785 21.1977 17.5514 19.3744 19.3747C17.5512 21.1979 15.0783 22.2222 12.4998 22.2222Z" fill="white"/>
</g>
</svg>
