<svg width="22" height="25" viewBox="0 0 22 25" fill="none" xmlns="http://www.w3.org/2000/svg">
<g id="Group">
<path id="Vector" fill-rule="evenodd" clip-rule="evenodd" d="M17.9229 1H7.15371C6.33765 1 5.55503 1.32417 4.97799 1.90121C4.40096 2.47824 4.07678 3.26087 4.07678 4.07692V17.9231C4.07678 18.7391 4.40096 19.5218 4.97799 20.0988C5.55503 20.6758 6.33765 21 7.15371 21H17.9229C18.739 21 19.5216 20.6758 20.0986 20.0988C20.6757 19.5218 20.9999 18.7391 20.9999 17.9231V4.07692C20.9999 3.26087 20.6757 2.47824 20.0986 1.90121C19.5216 1.32417 18.739 1 17.9229 1Z" stroke="white" stroke-width="1.3" stroke-linecap="round" stroke-linejoin="round"/>
<path id="Vector_2" d="M4.07692 4.07692C3.26087 4.07692 2.47824 4.4011 1.90121 4.97813C1.32417 5.55517 1 6.3378 1 7.15385V19.4615C1 20.6856 1.48626 21.8596 2.35182 22.7251C3.21737 23.5907 4.39131 24.0769 5.61538 24.0769H14.8462C15.6622 24.0769 16.4448 23.7527 17.0219 23.1757C17.5989 22.5987 17.9231 21.8161 17.9231 21" stroke="white" stroke-width="1.3" stroke-linecap="round" stroke-linejoin="round"/>
</g>
</svg>
