<svg width="28" height="25" viewBox="0 0 28 25" fill="none" xmlns="http://www.w3.org/2000/svg">
<path id="Vector" d="M27.1249 0H0.874997C0.642933 0 0.420374 0.090825 0.256281 0.252494C0.0921869 0.414164 0 0.633434 0 0.862069V2.30172C0.000163608 2.50533 0.0412246 2.7069 0.120817 2.8948C0.200409 3.0827 0.316958 3.25323 0.463748 3.39655L10.5 13.431V22.2241L12.25 22.8793V12.931C12.2506 12.8176 12.2286 12.7051 12.185 12.6001C12.1415 12.495 12.0773 12.3995 11.9962 12.319L1.74999 2.23276V1.72414H26.2499V2.25L16.0387 12.319C15.9513 12.3966 15.8806 12.4908 15.831 12.596C15.7814 12.7012 15.7538 12.8151 15.7499 12.931V24.319L17.4999 25V13.3621L27.5362 3.44828C27.6853 3.30132 27.8032 3.12648 27.8828 2.93403C27.9624 2.74158 28.0023 2.5354 27.9999 2.32759V0.862069C27.9999 0.633434 27.9077 0.414164 27.7436 0.252494C27.5795 0.090825 27.357 0 27.1249 0Z" fill="#BB1D1E"/>
</svg>
