<svg width="14" height="14" viewBox="0 0 14 14" fill="none" xmlns="http://www.w3.org/2000/svg">
<path id="Vector" d="M7 11.6667L10.1111 8.55556L9.02222 7.46667L7.77778 8.71111V5.44445H6.22222V8.71111L4.97778 7.46667L3.88889 8.55556L7 11.6667ZM1.55556 3.88889V12.4444H12.4444V3.88889H1.55556ZM1.55556 14C1.12778 14 0.761445 13.8476 0.456557 13.5427C0.151668 13.2378 -0.000517198 12.8717 1.32051e-06 12.4444V2.74167C1.32051e-06 2.56019 0.0292975 2.38519 0.0878901 2.21667C0.146483 2.04815 0.233853 1.8926 0.350001 1.75L1.32222 0.563893C1.46482 0.382411 1.64293 0.24293 1.85656 0.145449C2.07019 0.0479671 2.29393 -0.000514403 2.52778 4.11522e-06H11.4722C11.7056 4.11522e-06 11.9293 0.0487448 12.1434 0.146226C12.3576 0.243708 12.5357 0.38293 12.6778 0.563893L13.65 1.75C13.7667 1.8926 13.8543 2.04815 13.9129 2.21667C13.9715 2.38519 14.0005 2.56019 14 2.74167V12.4444C14 12.8722 13.8476 13.2386 13.5427 13.5434C13.2378 13.8483 12.8717 14.0005 12.4444 14H1.55556ZM1.86667 2.33334H12.1333L11.4722 1.55556H2.52778L1.86667 2.33334Z" fill="#BB1D1E"/>
</svg>
