<svg width="60" height="49" viewBox="0 0 60 49" fill="none" xmlns="http://www.w3.org/2000/svg">
<path id="Vector" d="M52.8184 9.17219C52.5904 8.25956 51.9424 7.5705 51.2014 7.35919C49.8875 6.9825 43.5008 6.125 30.0015 6.125C16.5022 6.125 10.1185 6.9825 8.79556 7.35919C8.0636 7.56744 7.41563 8.2565 7.18464 9.17219C6.85766 10.4707 6.0027 15.9097 6.0027 24.5C6.0027 33.0872 6.85766 38.5263 7.18464 39.8309C7.41263 40.7404 8.0606 41.4295 8.79856 41.6378C10.1185 42.0175 16.4992 42.875 29.9985 42.875C43.4978 42.875 49.8845 42.0175 51.2044 41.6408C51.9364 41.4326 52.5844 40.7435 52.8154 39.8278C53.1453 38.5293 53.9973 33.075 53.9973 24.5C53.9973 15.925 53.1453 10.4738 52.8184 9.17219ZM58.6291 7.65013C60 13.1075 60 24.5 60 24.5C60 24.5 60 35.8925 58.6291 41.3499C57.8671 44.3664 55.6382 46.7399 52.8154 47.5423C47.6886 49 29.9985 49 29.9985 49C29.9985 49 12.3204 49 7.18464 47.5423C4.34978 46.7276 2.12389 44.3573 1.37093 41.3499C8.94025e-08 35.8925 0 24.5 0 24.5C0 24.5 8.94025e-08 13.1075 1.37093 7.65013C2.13289 4.63356 4.36178 2.26012 7.18464 1.45775C12.3234 -5.47618e-07 30.0015 0 30.0015 0C30.0015 0 47.6886 -5.47618e-07 52.8154 1.45775C55.6472 2.27237 57.8761 4.64275 58.6291 7.65013ZM24.0018 35.2188V13.7812L42.0009 24.5L24.0018 35.2188Z" fill="black"/>
</svg>
